<svg width="187" height="32" viewBox="0 0 187 32" fill="none" xmlns="http://www.w3.org/2000/svg">
<path fill-rule="evenodd" clip-rule="evenodd" d="M32.0919 0H0.924332V32H32.0919V0ZM98.3861 8.04C99.6232 8.04 100.686 8.3184 101.575 8.8752C102.465 9.432 103.112 10.1904 103.518 11.1504V3H108.476V24.312H103.518V21.4032C103.112 22.3632 102.465 23.1216 101.575 23.6784C100.686 24.2352 99.6232 24.5136 98.3861 24.5136C97.0523 24.5136 95.8587 24.1824 94.8052 23.52C93.7517 22.8576 92.9206 21.9024 92.3117 20.6544C91.7028 19.4064 91.3984 17.9472 91.3984 16.2768C91.3984 14.5872 91.7028 13.1232 92.3117 11.8848C92.9206 10.6464 93.7517 9.696 94.8052 9.0336C95.8587 8.3712 97.0523 8.04 98.3861 8.04ZM48.1094 17.1696V24.312H43.1514V3.9504H51.1829C53.6184 3.9504 55.474 4.55039 56.7498 5.7504C58.0256 6.95041 58.6635 8.56799 58.6635 10.6032C58.6635 11.8704 58.3783 12.9984 57.8081 13.9872C57.2379 14.976 56.3922 15.7536 55.2711 16.32C54.15 16.8864 52.7872 17.1696 51.1829 17.1696H48.1094ZM50.632 13.224C52.6229 13.224 53.6184 12.3504 53.6184 10.6032C53.6184 8.81759 52.6229 7.9248 50.632 7.9248H48.1094V13.224H50.632ZM68.4491 8.9328C67.473 9.5088 66.6756 10.2864 66.0571 11.2656V8.2416H61.099V24.312H66.0571V16.9968C66.0571 15.672 66.4195 14.7312 67.1444 14.1744C67.8692 13.6176 68.8889 13.3392 70.2033 13.3392H71.624V8.0688C70.4836 8.0688 69.4253 8.3568 68.4491 8.9328ZM81.2792 8.04C82.8836 8.04 84.3188 8.3712 85.5849 9.0336C86.851 9.696 87.8465 10.6512 88.5714 11.8992C89.2963 13.1472 89.6587 14.6064 89.6587 16.2768C89.6587 17.9472 89.2963 19.4064 88.5714 20.6544C87.8465 21.9024 86.851 22.8576 85.5849 23.52C84.3188 24.1824 82.8836 24.5136 81.2792 24.5136C79.6749 24.5136 78.2348 24.1824 76.959 23.52C75.6833 22.8576 74.683 21.9024 73.9581 20.6544C73.2332 19.4064 72.8708 17.9472 72.8708 16.2768C72.8708 14.6064 73.2332 13.1472 73.9581 11.8992C74.683 10.6512 75.6833 9.696 76.959 9.0336C78.2348 8.3712 79.6749 8.04 81.2792 8.04ZM78.8872 13.3248C79.5347 12.6432 80.3321 12.3024 81.2792 12.3024C82.2264 12.3024 83.0189 12.6432 83.6568 13.3248C84.2947 14.0064 84.6136 14.9904 84.6136 16.2768C84.6136 17.5632 84.2947 18.5424 83.6568 19.2144C83.0189 19.8864 82.2264 20.2224 81.2792 20.2224C80.3321 20.2224 79.5347 19.8864 78.8872 19.2144C78.2396 18.5424 77.9159 17.5632 77.9159 16.2768C77.9159 14.9904 78.2396 14.0064 78.8872 13.3248ZM97.4147 13.3968C98.0623 12.7056 98.9176 12.36 99.9808 12.36C101.025 12.36 101.88 12.7104 102.547 13.4112C103.214 14.112 103.547 15.0672 103.547 16.2768C103.547 17.4672 103.214 18.4176 102.547 19.128C101.88 19.8384 101.025 20.1936 99.9808 20.1936C98.9176 20.1936 98.0623 19.848 97.4147 19.1568C96.7672 18.4656 96.4434 17.5056 96.4434 16.2768C96.4434 15.048 96.7672 14.088 97.4147 13.3968ZM127.99 24.312H123.002V21.4032C122.539 22.344 121.848 23.0928 120.929 23.6496C120.011 24.2064 118.943 24.4848 117.725 24.4848C115.87 24.4848 114.396 23.8704 113.304 22.6416C112.212 21.4128 111.666 19.7232 111.666 17.5728V8.2416H116.595V16.968C116.595 18.0624 116.88 18.912 117.45 19.5168C118.02 20.1216 118.789 20.424 119.755 20.424C120.76 20.424 121.553 20.1072 122.133 19.4736C122.713 18.84 123.002 17.9376 123.002 16.7664V8.2416H127.99V24.312ZM143.966 9.7536C142.554 8.61119 140.805 8.04 138.718 8.04C137.132 8.04 135.721 8.3712 134.484 9.0336C133.247 9.696 132.286 10.6464 131.599 11.8848C130.913 13.1232 130.57 14.5872 130.57 16.2768C130.57 17.9472 130.918 19.4064 131.614 20.6544C132.31 21.9024 133.271 22.8576 134.499 23.52C135.726 24.1824 137.132 24.5136 138.718 24.5136C140.805 24.5136 142.554 23.9424 143.966 22.8C145.377 21.6576 146.266 20.088 146.633 18.0912H141.385C141.23 18.7824 140.911 19.32 140.428 19.704C139.945 20.088 139.336 20.28 138.602 20.28C137.732 20.28 137.017 19.9392 136.456 19.2576C135.895 18.576 135.615 17.5824 135.615 16.2768C135.615 14.9712 135.895 13.9776 136.456 13.296C137.017 12.6144 137.732 12.2736 138.602 12.2736C139.336 12.2736 139.945 12.4656 140.428 12.8496C140.911 13.2336 141.23 13.7712 141.385 14.4624H146.633C146.266 12.4656 145.377 10.896 143.966 9.7536ZM158.376 20.0784V24.312H156.143C154.249 24.312 152.775 23.8464 151.722 22.9152C150.668 21.984 150.141 20.4432 150.141 18.2928V12.3888H147.967V8.2416H150.141V4.296H155.099V8.2416H158.347V12.3888H155.099V18.3792C155.099 19.0128 155.23 19.4544 155.491 19.704C155.752 19.9536 156.192 20.0784 156.81 20.0784H158.376ZM166.117 24.312V3H161.159V24.312H166.117ZM173.279 8.2416L177.164 18.0912L180.789 8.2416H186.269L176.179 31.9728H170.728L174.526 23.7072L167.741 8.2416H173.279Z" fill="#173A56"/>
</svg>
