<svg width="110" height="46" viewBox="0 0 110 46" fill="none" xmlns="http://www.w3.org/2000/svg">
<rect x="0.5" y="0.5" width="109" height="45" rx="3.5" stroke="#BCD0E5"/>
<path d="M30.976 29.16C30.1013 29.16 29.264 29.0373 28.464 28.792C27.664 28.536 27.0293 28.2107 26.56 27.816L27.28 26.2C27.728 26.552 28.2827 26.8453 28.944 27.08C29.6053 27.3147 30.2827 27.432 30.976 27.432C31.5627 27.432 32.0373 27.368 32.4 27.24C32.7627 27.112 33.0293 26.9413 33.2 26.728C33.3707 26.504 33.456 26.2533 33.456 25.976C33.456 25.6347 33.3333 25.3627 33.088 25.16C32.8427 24.9467 32.5227 24.7813 32.128 24.664C31.744 24.536 31.312 24.4187 30.832 24.312C30.3627 24.2053 29.888 24.0827 29.408 23.944C28.9387 23.7947 28.5067 23.608 28.112 23.384C27.728 23.1493 27.4133 22.84 27.168 22.456C26.9227 22.072 26.8 21.5813 26.8 20.984C26.8 20.376 26.96 19.8213 27.28 19.32C27.6107 18.808 28.1067 18.4027 28.768 18.104C29.44 17.7947 30.288 17.64 31.312 17.64C31.984 17.64 32.6507 17.7253 33.312 17.896C33.9733 18.0667 34.5493 18.312 35.04 18.632L34.384 20.248C33.8827 19.9493 33.3653 19.7307 32.832 19.592C32.2987 19.4427 31.7867 19.368 31.296 19.368C30.72 19.368 30.2507 19.4373 29.888 19.576C29.536 19.7147 29.2747 19.896 29.104 20.12C28.944 20.344 28.864 20.6 28.864 20.888C28.864 21.2293 28.9813 21.5067 29.216 21.72C29.4613 21.9227 29.776 22.0827 30.16 22.2C30.5547 22.3173 30.992 22.4347 31.472 22.552C31.952 22.6587 32.4267 22.7813 32.896 22.92C33.376 23.0587 33.808 23.24 34.192 23.464C34.5867 23.688 34.9013 23.992 35.136 24.376C35.3813 24.76 35.504 25.2453 35.504 25.832C35.504 26.4293 35.3387 26.984 35.008 27.496C34.688 27.9973 34.192 28.4027 33.52 28.712C32.848 29.0107 32 29.16 30.976 29.16ZM37.3745 29V20.456H39.3745V29H37.3745ZM38.3825 19.048C38.0092 19.048 37.6998 18.9307 37.4545 18.696C37.2198 18.4613 37.1025 18.1787 37.1025 17.848C37.1025 17.5067 37.2198 17.224 37.4545 17C37.6998 16.7653 38.0092 16.648 38.3825 16.648C38.7558 16.648 39.0598 16.76 39.2945 16.984C39.5398 17.1973 39.6625 17.4693 39.6625 17.8C39.6625 18.152 39.5452 18.4507 39.3105 18.696C39.0758 18.9307 38.7665 19.048 38.3825 19.048ZM45.8715 32.216C45.0822 32.216 44.3088 32.1093 43.5515 31.896C42.8048 31.6933 42.1915 31.3947 41.7115 31L42.6075 29.496C42.9808 29.8053 43.4502 30.0507 44.0155 30.232C44.5915 30.424 45.1728 30.52 45.7595 30.52C46.6982 30.52 47.3862 30.3013 47.8235 29.864C48.2608 29.4373 48.4795 28.792 48.4795 27.928V26.408L48.6395 24.472L48.5755 22.536V20.456H50.4795V27.704C50.4795 29.2507 50.0848 30.3867 49.2955 31.112C48.5062 31.848 47.3648 32.216 45.8715 32.216ZM45.6155 28.616C44.8048 28.616 44.0688 28.4453 43.4075 28.104C42.7568 27.752 42.2395 27.2667 41.8555 26.648C41.4822 26.0293 41.2955 25.304 41.2955 24.472C41.2955 23.6507 41.4822 22.9307 41.8555 22.312C42.2395 21.6933 42.7568 21.2133 43.4075 20.872C44.0688 20.5307 44.8048 20.36 45.6155 20.36C46.3408 20.36 46.9915 20.504 47.5675 20.792C48.1435 21.08 48.6022 21.528 48.9435 22.136C49.2955 22.744 49.4715 23.5227 49.4715 24.472C49.4715 25.4213 49.2955 26.2053 48.9435 26.824C48.6022 27.432 48.1435 27.8853 47.5675 28.184C46.9915 28.472 46.3408 28.616 45.6155 28.616ZM45.9195 26.92C46.4208 26.92 46.8688 26.8187 47.2635 26.616C47.6582 26.4027 47.9622 26.1147 48.1755 25.752C48.3995 25.3787 48.5115 24.952 48.5115 24.472C48.5115 23.992 48.3995 23.5707 48.1755 23.208C47.9622 22.8347 47.6582 22.552 47.2635 22.36C46.8688 22.1573 46.4208 22.056 45.9195 22.056C45.4182 22.056 44.9648 22.1573 44.5595 22.36C44.1648 22.552 43.8555 22.8347 43.6315 23.208C43.4182 23.5707 43.3115 23.992 43.3115 24.472C43.3115 24.952 43.4182 25.3787 43.6315 25.752C43.8555 26.1147 44.1648 26.4027 44.5595 26.616C44.9648 26.8187 45.4182 26.92 45.9195 26.92ZM57.9569 20.36C58.6395 20.36 59.2475 20.4933 59.7809 20.76C60.3249 21.0267 60.7515 21.4373 61.0609 21.992C61.3702 22.536 61.5249 23.24 61.5249 24.104V29H59.5249V24.36C59.5249 23.6027 59.3435 23.0373 58.9809 22.664C58.6289 22.2907 58.1329 22.104 57.4929 22.104C57.0235 22.104 56.6075 22.2 56.2449 22.392C55.8822 22.584 55.5995 22.872 55.3969 23.256C55.2049 23.6293 55.1089 24.104 55.1089 24.68V29H53.1089V20.456H55.0129V22.76L54.6769 22.056C54.9755 21.512 55.4075 21.096 55.9729 20.808C56.5489 20.5093 57.2102 20.36 57.9569 20.36ZM68.6759 29V17.8H70.7559V29H68.6759ZM78.4413 20.36C79.1239 20.36 79.7319 20.4933 80.2653 20.76C80.8093 21.0267 81.2359 21.4373 81.5453 21.992C81.8546 22.536 82.0093 23.24 82.0093 24.104V29H80.0093V24.36C80.0093 23.6027 79.8279 23.0373 79.4653 22.664C79.1133 22.2907 78.6173 22.104 77.9773 22.104C77.5079 22.104 77.0919 22.2 76.7293 22.392C76.3666 22.584 76.0839 22.872 75.8813 23.256C75.6893 23.6293 75.5933 24.104 75.5933 24.68V29H73.5933V20.456H75.4973V22.76L75.1613 22.056C75.4599 21.512 75.8919 21.096 76.4573 20.808C77.0333 20.5093 77.6946 20.36 78.4413 20.36Z" fill="#2F281E"/>
</svg>
